<svg t="1594179317740" class="icon" viewBox="0 0 1024 1024" version="1.1" xmlns="http://www.w3.org/2000/svg" p-id="2112" width="32" height="32"><path d="M512 256v128l170.666667-170.666667-170.666667-170.666666v128a341.333333 341.333333 0 0 0-341.333333 341.333333c0 66.986667 19.626667 129.28 52.906666 181.76L285.866667 631.466667A251.733333 251.733333 0 0 1 256 512a256 256 0 0 1 256-256m288.426667 74.24L738.133333 392.533333c18.773333 35.84 29.866667 76.8 29.866667 119.466667a256 256 0 0 1-256 256v-128l-170.666667 170.666667 170.666667 170.666666v-128a341.333333 341.333333 0 0 0 341.333333-341.333333c0-66.986667-19.626667-129.28-52.906666-181.76z" fill="#999999" p-id="2113"></path></svg>