<svg t="1591585246551" class="icon" viewBox="0 0 1024 1024" version="1.1" xmlns="http://www.w3.org/2000/svg" p-id="3417" width="32" height="32"><path d="M85.333333 85.333333h853.333334a21.333333 21.333333 0 0 1 0 42.666667H85.333333a21.333333 21.333333 0 0 1 0-42.666667z m64 896h725.333334a21.333333 21.333333 0 0 1 0 42.666667H149.333333a21.333333 21.333333 0 0 1 0-42.666667zM149.333333 85.333333a21.333333 21.333333 0 0 1 21.333334 21.333334v896a21.333333 21.333333 0 0 1-42.666667 0V106.666667a21.333333 21.333333 0 0 1 21.333333-21.333334z m725.333334 0a21.333333 21.333333 0 0 1 21.333333 21.333334v896a21.333333 21.333333 0 0 1-42.666667 0V106.666667a21.333333 21.333333 0 0 1 21.333334-21.333334z m-554.666667 128a21.333333 21.333333 0 0 1 21.333333 21.333334v640a21.333333 21.333333 0 0 1-42.666666 0V234.666667a21.333333 21.333333 0 0 1 21.333333-21.333334z m192 0a21.333333 21.333333 0 0 1 21.333333 21.333334v640a21.333333 21.333333 0 0 1-42.666666 0V234.666667a21.333333 21.333333 0 0 1 21.333333-21.333334z m192 0a21.333333 21.333333 0 0 1 21.333333 21.333334v640a21.333333 21.333333 0 0 1-42.666666 0V234.666667a21.333333 21.333333 0 0 1 21.333333-21.333334zM320 0h384a21.333333 21.333333 0 0 1 0 42.666667H320a21.333333 21.333333 0 0 1 0-42.666667z" p-id="3418" fill="#999999"></path></svg>