<svg t="1594808768976" class="icon" viewBox="0 0 1024 1024" version="1.1" xmlns="http://www.w3.org/2000/svg" p-id="16374" width="32" height="32"><path d="M595.456 401.700571q0-50.322286-34.304-69.12-18.870857-10.313143-66.852571-10.313143l-70.290286 0 0 160.548571 92.598857 0q37.741714 0 58.294857-21.138286t20.553143-59.977143zM625.152 564.589714l117.174857 213.138286q4.534857 9.728-0.585143 17.700571-4.534857 9.142857-15.433143 9.142857l-86.820571 0q-11.410286 0-16.018286-9.728l-110.884571-208.603429-88.576 0 0 199.972571q0 7.972571-5.12 13.165714t-13.165714 5.12l-76.580571 0q-7.972571 0-13.165714-5.12t-5.12-13.165714l0-548.571429q0-7.972571 5.12-13.165714t13.165714-5.12l168.009143 0q73.142857 0 108.544 13.677714 48.566857 17.700571 76.580571 62.317714t28.013714 102.838857q0 52.589714-24.283429 94.573714t-65.974857 62.537143q3.437714 5.705143 5.12 9.142857zM512 91.428571q-85.723429 0-163.401143 33.426286t-133.997714 89.746286-89.746286 133.997714-33.426286 163.401143 33.426286 163.401143 89.746286 133.997714 133.997714 89.746286 163.401143 33.426286 163.401143-33.426286 133.997714-89.746286 89.746286-133.997714 33.426286-163.401143-33.426286-163.401143-89.746286-133.997714-133.997714-89.746286-163.401143-33.426286zM1024 512q0 104.009143-40.594286 198.875429t-109.129143 163.401143-163.401143 109.129143-198.875429 40.594286-198.875429-40.594286-163.401143-109.129143-109.129143-163.401143-40.594286-198.875429 40.594286-198.875429 109.129143-163.401143 163.401143-109.129143 198.875429-40.594286 198.875429 40.594286 163.401143 109.129143 109.129143 163.401143 40.594286 198.875429z" p-id="16375" fill="#ffffff"></path></svg>