<svg t="1591071284056" class="icon" viewBox="0 0 1024 1024" version="1.1" xmlns="http://www.w3.org/2000/svg" p-id="7067" width="32" height="32"><path d="M575.240323 929.362596 455.561593 929.362596c-31.413454 0-64.735373-36.042891-64.735373-64.462151l0-42.777269c0-4.00522-18.186198-8.574283-29.067013-13.765515l-25.90909 29.182646c-21.51399 21.592784-55.764048 21.12411-76.092026 0.810459l-84.253916-84.182284c-10.196223-10.196223-15.644305-23.586185-15.644305-37.72623 0-14.124695 5.683443-27.499307 15.863293-37.679158l32.776498-31.553647c-3.241834-7.000438-6.266727-14.092973-9.087982-21.154809l-42.076304 0c-28.138874 0-69.817112-29.27679-69.817112-60.393485L87.518263 445.981401c0-31.411407 41.397852-59.379389 69.817112-59.379389l42.294268 0c3.898797-9.774621 8.357342-20.827351 13.438057-31.708166l-36.930097-34.842553c-10.647501-10.633175-16.291035-24.11728-16.368806-38.443567-0.077771-14.452153 5.486968-28.030403 15.69854-38.226626l84.244706-84.603887c20.422122-20.422122 55.187927-20.376073 75.531254-0.030699l35.621289 39.330774c7.203052-3.350304 19.962657-6.608511 19.962657-9.742898l0-56.542784c0-27.640524 30.890544-48.498574 64.735373-48.498574l119.67873 0c29.27679 0 55.039547 16.993023 55.039547 48.498574l0 55.638181c15.963577 3.087315 18.207687 6.26775 25.371854 9.509585l36.634362-37.773302c21.512966-21.544689 57.118905-21.077038 77.432557-0.763386l84.923158 84.244706c10.196223 10.211573 15.971763 23.617907 15.971763 37.788651 0 14.170744-5.526877 27.593452-15.690354 37.756929l-35.458583 34.452673c5.535063 11.661597 10.444886 23.603581 14.623046 33.954323l40.392966 0c27.6395 0 43.143613 25.535583 43.143613 59.379389l0 119.680776c0 29.27679-11.637038 60.393485-43.143613 60.393485l-40.111556 0c-3.181459 8.04421-6.439666 15.682167-9.743922 22.853497l29.885658 27.54638c10.850116 10.82044 16.493649 24.288173 16.585747 38.615483 0.094144 14.46648-5.486968 28.028357-15.682167 38.240953l-84.182284 84.603887c-20.422122 20.405749-55.04671 20.390399-75.42176 0.030699l-30.30726-28.745694c-11.1919 5.237281-19.259646 9.851369-35.223223 13.842263l0 41.85834C630.27987 893.039319 606.358041 929.362596 575.240323 929.362596zM371.112226 757.925039c14.124695 8.013511 31.80231 15.230889 46.020126 21.029966 4.490268 1.808182 8.652054 3.523243 12.348236 5.099135l2.182712 2.057869c5.892197 2.509147 7.054673 8.292873 7.054673 14.700817l0 64.087621c0 2.697435 5.418406 7.218402 8.441253 10.882861 3.024893 3.694135 8.901741 5.814426 13.68672 5.814426l107.86466-0.124843c4.426823 0 6.28924-1.838881 9.298783-5.051039 3.538593-3.78828 4.380774-8.714476 4.380774-11.676947l0-63.184041c0-6.453992 6.53995-12.252045 12.494569-14.731516l6.251378-2.041496c3.78828-1.590218 8.730848-3.306302 13.345959-5.145184 14.279215-5.690606 32.400944-12.783141 46.666856-20.74958l5.542226-3.009544c6.343475-3.538593 14.349823-2.352581 19.384489 2.8847l36.004005 37.445844c2.976798 3.101641 7.100722 4.863774 11.402701 4.910846 4.304026 0.031722 8.426927-1.65264 11.450796-4.707209l69.193919-69.529563c3.055592-3.087315 4.739954-7.265474 4.64581-11.599176-0.092098-4.348028-1.949398-8.449439-5.143137-11.410887l-39.09132-36.012192c-5.307889-4.894474-6.670933-12.751419-3.320629-19.144012l2.852978-5.424546c7.249101-13.843286 14.405081-30.43108 21.265326-49.356105l1.901303-5.270027c2.306532-6.297426 8.292873-10.507308 15.011902-10.507308l46.876634 0c8.824993 0 10.609639-7.140631 10.609639-15.963577l0-111.745037c0-8.822946-1.784646-15.963577-10.609639-15.963577l-46.360887 0c-6.391571 0-12.160971-3.803629-14.686491-9.680477l-2.057869-4.849448c-1.808182-4.178159-3.771907-9.041934-5.90857-14.341636-5.752004-14.263865-12.924357-32.021298-20.843724-45.957705l-3.039219-5.362124c-3.601015-6.329149-2.463098-14.281261 2.759857-19.332301l44.459584-43.167149c3.055592-2.976798 4.801353-7.061836 4.834098-11.348466 0.030699-4.287653-1.653663-8.403391-4.692882-11.411911l-69.700455-69.419046c-3.055592-3.039219-7.232728-4.707209-11.536754-4.64581-4.332678 0.094144-8.43409 1.901303-11.379165 5.082762l-43.774993 46.861284c-4.863774 5.221932-12.628622 6.562463-18.97312 3.304256l-5.378497-2.774183c-13.999852-7.217379-30.555923-14.216793-49.139164-20.795629l-8.012488-1.90335c-6.359848-2.24411-13.305027-8.277524-13.305027-15.028275l0-62.575174c0-8.822946-1.784646-15.963577-10.609639-15.963577l-111.745037 0c-8.822946 0-21.317515 7.140631-21.317515 15.963577l0 63.324234c0 6.719028-1.535983 12.721743-7.881504 15.011902l-3.942799 1.90335c-17.72571 6.391571-33.860179 13.671371-47.907103 21.060665l-4.965082 2.774183c-6.251378 3.27458-13.759375 2.057869-18.683525-2.993171l-46.573735-47.953152c-2.993171-3.055592-7.0383-4.801353-11.310603-4.816702-4.272303-0.016373-8.363482 1.667989-11.388375 4.691859l-69.427232 69.74855c-3.055592 3.055592-4.715395 7.201006-4.637624 11.505032 0.062422 4.318352 1.86958 8.417717 4.988618 11.379165l46.487777 43.807738c5.316076 5.019317 6.554276 13.016455 2.984984 19.392676l-3.041266 5.441942c-7.825222 14.014178-14.809287 31.598672-20.422122 45.75509-1.807159 4.551666-3.491521 8.791224-5.051039 12.548804l-2.057869 4.910846c-2.463098 5.969968-8.292873 9.852392-14.731516 9.852392l-63.823608 0c-2.696412 0.156566-7.217379 2.744507-10.880815 5.767354-3.695159 3.024893-5.815449 7.562233-5.815449 12.348236l0.124843 107.394962c0 4.66116 2.058892 9.104355 5.596462 12.129248 3.695159 3.14769 8.309246 6.03239 11.131525 6.03239l64.181765 0c6.78145 0 12.81384 4.287653 15.059997 10.69355l1.870604 5.347798c5.456269 15.573697 12.502755 31.881105 20.374026 47.174416l2.728134 5.284353c3.227508 6.26775 1.964748 13.905708-3.118014 18.802228l-41.077557 39.612183c-3.087315 2.976798-4.848425 7.061836-4.880147 11.364839-0.031722 4.287653 1.65264 8.41874 4.707209 11.44261l69.559239 69.232804c3.056616 3.041266 7.234775 4.723581 11.568477 4.64581 4.301979-0.076748 8.417717-1.917676 11.364839-5.065366l36.260855-38.880519c5.034666-5.393847 13.124925-6.641257 19.549242-2.993171L371.112226 757.925039z" p-id="7068" fill="#ffffff"></path><path d="M507.925195 338.710258c-88.173179 0-159.635767 71.462588-159.635767 159.635767s71.462588 159.635767 159.635767 159.635767c88.175225 0 159.635767-71.462588 159.635767-159.635767S596.099397 338.710258 507.925195 338.710258zM507.925195 626.054639c-70.52524 0-127.708614-57.181327-127.708614-127.708614s57.183374-127.708614 127.708614-127.708614c70.527286 0 127.708614 57.181327 127.708614 127.708614S578.452481 626.054639 507.925195 626.054639z" p-id="7069" fill="#ffffff"></path></svg>