<svg t="1591082290811" class="icon" viewBox="0 0 1024 1024" version="1.1" xmlns="http://www.w3.org/2000/svg" p-id="8193" width="32" height="32"><path d="M559.778678 511.789199 948.587961 123.008568c13.379729-13.419637 13.379729-35.276435 0-48.696072-13.449313-13.409404-35.30611-13.409404-48.685839 0L511.080559 463.10336 122.301975 74.312496c-13.409404-13.409404-35.267225-13.409404-48.685839 0-13.409404 13.419637-13.409404 35.276435 0 48.696072L462.396767 511.789199 73.616136 900.609739c-13.409404 13.378705-13.409404 35.236526 0 48.685839 6.764054 6.724145 15.570627 10.013051 24.3772 10.013051 8.807596 0 17.624403-3.357468 24.378224-10.013051l388.780631-388.82054 388.749932 388.82054c6.794753 6.724145 15.601326 10.013051 24.408923 10.013051 8.815783 0 17.624403-3.357468 24.417109-10.013051 13.377682-13.450337 13.377682-35.307134 0-48.685839L559.906591 511.789199 559.778678 511.789199z" p-id="8194" fill="#6D7C92"></path></svg>