<svg t="1594004393668" class="icon" viewBox="0 0 1024 1024" version="1.1" xmlns="http://www.w3.org/2000/svg" p-id="8755" width="32" height="32"><path d="M768 896H256a128 128 0 0 1-128-128V256a128 128 0 0 1 128-128h512a128 128 0 0 1 128 128v512a128 128 0 0 1-128 128zM256 213.333333a42.666667 42.666667 0 0 0-42.666667 42.666667v512a42.666667 42.666667 0 0 0 42.666667 42.666667h512a42.666667 42.666667 0 0 0 42.666667-42.666667V256a42.666667 42.666667 0 0 0-42.666667-42.666667z" p-id="8756" fill="#999999"></path></svg>