<svg t="1591001179932" class="icon" viewBox="0 0 1024 1024" version="1.1" xmlns="http://www.w3.org/2000/svg" p-id="5082" width="32" height="32"><path d="M856.32 404.650667a31.146667 31.146667 0 0 0-31.189333 31.146666v413.354667a34.432 34.432 0 0 1-34.645334 34.218667H233.514667a34.432 34.432 0 0 1-34.645334-34.218667V250.837333c0-18.901333 15.530667-34.218667 34.645334-34.218666h420.778666a30.634667 30.634667 0 1 0 0-61.269334H233.514667C179.925333 155.306667 136.533333 198.058667 136.533333 250.794667v598.357333c0 52.736 43.392 95.488 96.981334 95.488h556.970666c53.589333 0 96.981333-42.752 96.981334-95.488V435.797333a31.146667 31.146667 0 0 0-31.146667-31.146666z" p-id="5083" fill="#ffffff"></path><path d="M288 365.653333m28.288 0l243.157333 0q28.288 0 28.288 28.288l0 3.157334q0 28.288-28.288 28.288l-243.157333 0q-28.288 0-28.288-28.288l0-3.157334q0-28.288 28.288-28.288Z" p-id="5084" fill="#ffffff"></path><path d="M288 513.877333m28.288 0l393.045333 0q28.288 0 28.288 28.288l0 3.157334q0 28.288-28.288 28.288l-393.045333 0q-28.288 0-28.288-28.288l0-3.157334q0-28.288 28.288-28.288Z" p-id="5085" fill="#ffffff"></path><path d="M668.672 359.637333l217.514667-256a28.288 28.288 0 0 1 39.68-3.413333l9.984 8.32a28.288 28.288 0 0 1 3.456 40.106667l-217.472 255.957333a28.288 28.288 0 0 1-39.68 3.413333l-9.984-8.32a28.288 28.288 0 0 1-3.498667-40.106666z" p-id="5086" fill="#ffffff"></path><path d="M288 662.101333m28.288 0l393.045333 0q28.288 0 28.288 28.288l0 3.157334q0 28.288-28.288 28.288l-393.045333 0q-28.288 0-28.288-28.288l0-3.157334q0-28.288 28.288-28.288Z" p-id="5087" fill="#ffffff"></path></svg>